M48
; DRILL file KiCad 10.0.1 date 2026-06-17T15:37:47
; FORMAT={-:-/ absolute / metric / decimal}
; #@! TF.CreationDate,2026-06-17T15:37:47+02:00
; #@! TF.GenerationSoftware,Kicad,Pcbnew,10.0.1
; #@! TF.FileFunction,Plated,1,4,PTH
FMAT,2
METRIC
; #@! TA.AperFunction,Plated,PTH,ComponentDrill
T1C0.400
; #@! TA.AperFunction,Plated,PTH,ComponentDrill
T2C0.600
; #@! TA.AperFunction,Plated,PTH,ComponentDrill
T3C0.700
; #@! TA.AperFunction,Plated,PTH,ComponentDrill
T4C1.000
%
G90
G05
T1
X101.814Y-91.568
X101.814Y-92.818
X101.914Y-96.838
X101.914Y-98.088
T2
X108.467Y-89.81
X108.467Y-91.08
X108.467Y-99.82
X108.467Y-101.09
X115.564Y-84.923
X117.564Y-84.923
X120.817Y-88.78
X120.817Y-90.05
X120.817Y-91.32
X120.817Y-92.59
X120.817Y-98.79
X120.817Y-100.06
X120.817Y-101.33
X120.817Y-102.6
X124.041Y-88.715
X124.041Y-89.985
X124.041Y-91.255
X124.041Y-92.525
X124.041Y-93.795
X124.041Y-95.065
X124.041Y-96.335
X124.041Y-97.605
X129.121Y-100.333
X129.121Y-101.603
X141.781Y-86.038
X141.781Y-87.308
X141.781Y-88.578
X141.781Y-89.848
X141.781Y-92.261
X141.781Y-93.531
X141.781Y-94.801
X141.781Y-96.071
X141.781Y-98.479
X141.781Y-99.749
X141.781Y-101.019
X206.214Y-100.553
X207.484Y-100.553
X208.754Y-100.553
T3
X198.164Y-84.713
X200.064Y-84.713
X202.189Y-84.703
X204.089Y-84.703
T4
X124.168Y-85.667
X124.295Y-100.78
X130.349Y-104.638
X132.889Y-104.638
X136.794Y-104.523
X139.334Y-104.523
X141.874Y-104.523
X149.994Y-84.683
X152.534Y-84.683
X155.074Y-84.683
X157.614Y-84.683
X160.154Y-84.683
X160.154Y-105.003
X162.694Y-84.683
X162.694Y-105.003
X165.234Y-84.683
X165.234Y-105.003
X167.674Y-87.613
X167.774Y-84.683
X167.774Y-105.003
X170.214Y-87.613
X170.314Y-84.683
X170.314Y-105.003
X172.754Y-87.613
X172.854Y-84.683
X172.854Y-105.003
X175.294Y-87.613
X175.394Y-84.683
X175.394Y-105.003
X177.834Y-87.613
X177.934Y-84.683
X177.934Y-105.003
X180.374Y-87.613
X180.474Y-84.683
X180.474Y-105.003
X182.914Y-87.613
X183.014Y-84.683
X183.014Y-105.003
X185.454Y-87.613
X185.554Y-84.683
X185.554Y-105.003
X187.994Y-87.613
X188.094Y-84.683
X188.094Y-105.003
X197.404Y-103.973
X199.944Y-103.973
X202.484Y-103.973
X205.024Y-103.973
X207.564Y-103.973
X210.104Y-103.973
X217.544Y-92.303
X217.544Y-94.843
X217.544Y-97.383
M30
